ply
format ascii 1.0
comment PCL generated
element vertex 162
property float x
property float y
property float z
element face 320
property list uchar int vertex_indices
end_header
1.1109 -0.95178 -0.078024 
1.0978 -0.93379 -0.091973 
1.0353 -0.93009 -0.092529 
1.0575 -0.9432 -0.093189 
0.94258 -0.772 -0.09396 
0.98658 -0.84843 -0.090843 
0.85584 -0.51487 0.61972 
1.5073 -0.16753 -0.084251 
1.4736 -0.19129 -0.091973 
1.7361 -0.59816 -0.10156 
1.7137 -0.61112 -0.10158 
1.7101 -0.61297 -0.10481 
1.7368 -0.61831 0.62865 
1.7409 -0.61477 0.57586 
1.7426 -0.61282 0.63008 
1.541 -0.19885 -0.074696 
0.89587 -0.47261 0.53625 
0.8573 -0.51352 -0.10156 
0.85769 -0.49337 0.62865 
0.85303 -0.5187 -0.10764 
0.83132 -0.5391 -0.10863 
0.87969 -0.50628 -0.10934 
0.83717 -0.52869 -0.10273 
0.81496 -0.54867 -0.09735 
0.85397 -0.51559 -0.10568 
0.85339 -0.49668 0.57586 
0.85458 -0.50694 0.63101 
0.85184 -0.50324 0.62316 
0.85161 -0.49854 0.63008 
1.5138 -0.16589 -0.087635 
1.527 -0.17692 -0.086683 
0.87556 -0.5202 0.6623 
1.092 -0.97081 -0.069387 
0.99043 -0.84705 -0.099113 
0.99748 -0.86794 -0.097067 
0.92233 -0.73512 -0.10397 
0.82517 -0.56627 -0.10679 
0.81706 -0.55256 -0.10189 
0.81683 -0.54775 -0.1056 
0.84206 -0.58796 -0.11205 
0.82315 -0.55212 -0.10832 
1.7141 -0.60659 -0.10934 
1.7554 -0.58194 -0.10273 
1.7393 -0.59592 -0.10568 
1.7401 -0.59276 -0.10764 
1.675 -0.54537 0.67036 
1.6046 -0.45295 0.68331 
1.596 -0.4465 0.68448 
1.7104 -0.59792 0.66242 
1.7421 -0.60814 0.62316 
1.6045 -0.43686 0.68182 
1.5204 -0.27376 0.63457 
1.5241 -0.27406 0.6237 
1.6244 -0.42733 0.63181 
1.5109 -0.31826 0.67504 
1.5565 -0.38814 0.68377 
1.5079 -0.32337 0.67604 
1.54 -0.37789 0.68352 
1.4398 -0.22458 0.65879 
1.4791 -0.2705 0.66822 
1.3914 -0.23874 0.65434 
1.2143 -0.30693 0.6415 
1.4255 -0.22818 0.65816 
0.97384 -0.44274 0.65013 
1.557 -0.40541 0.68723 
0.84876 -0.60869 -0.10613 
0.83711 -0.58739 -0.10793 
0.83253 -0.58118 -0.10496 
0.91463 -0.72373 -0.10292 
1.7607 -0.57124 -0.10863 
1.7681 -0.5578 -0.10832 
1.5854 -0.27219 -0.099113 
1.5362 -0.19166 -0.092529 
1.5133 -0.17974 -0.093189 
1.5294 -0.179 -0.09057 
1.6467 -0.51517 0.67833 
1.6369 -0.5166 0.67953 
1.648 -0.51099 0.67823 
1.7375 -0.59674 0.61972 
1.4917 -0.23057 0.63048 
1.5038 -0.25047 0.63516 
1.5132 -0.26055 0.63115 
1.4696 -0.22937 0.66016 
1.0414 -0.94309 -0.09057 
1.0437 -0.9453 -0.086683 
1.0616 -0.76994 0.68352 
1.0965 -0.82267 0.67604 
1.1281 -0.87393 0.66822 
0.95747 -0.63657 0.67953 
0.94775 -0.63853 0.67833 
0.89982 -0.53933 0.67123 
1.6372 -0.34459 -0.09396 
1.5892 -0.27061 -0.090843 
1.7742 -0.55704 -0.10189 
1.7747 -0.56183 -0.1056 
1.7765 -0.56081 -0.09735 
1.7654 -0.54378 -0.10679 
1.7474 -0.52302 -0.11205 
1.6677 -0.3913 -0.10292 
1.6594 -0.38034 -0.10397 
1.5772 -0.25171 -0.097067 
1.7572 -0.52928 -0.10496 
1.7396 -0.50267 -0.10613 
1.7523 -0.52332 -0.10793 
1.7306 -0.5883 0.62875 
1.7102 -0.5543 0.62857 
1.7392 -0.60459 0.63101 
1.727 -0.57936 0.62299 
1.0797 -0.88544 0.63579 
1.0619 -0.86251 0.63115 
1.0888 -0.90193 0.63162 
1.0829 -0.90229 0.61639 
1.0843 -0.89811 0.62905 
1.0818 -0.8936 0.63048 
1.1072 -0.91498 0.63838 
1.1362 -0.94884 0.56996 
1.0874 -0.90835 0.60205 
1.0563 -0.95701 -0.087635 
1.1249 -0.93718 0.59643 
1.1397 -0.95165 0.5641 
1.1579 -0.93507 0.65012 
1.6102 -0.70929 0.65013 
1.1511 -0.93439 0.65275 
1.1548 -0.92331 0.65837 
1.4901 -0.22195 0.61639 
1.4853 -0.21614 0.60205 
1.0446 -0.76058 0.68377 
1.0938 -0.82793 0.67504 
1.0431 -0.74336 0.68723 
0.99311 -0.69842 0.68331 
1.002 -0.7044 0.68448 
1.0708 -0.87308 0.63516 
0.91787 -0.60987 0.67036 
0.94669 -0.64277 0.67823 
0.87967 -0.55929 0.66242 
0.93901 -0.64093 0.67168 
1.1839 -0.91334 0.65816 
1.1764 -0.92176 0.65553 
1.7125 -0.63717 0.6623 
1.1698 -0.9177 0.65879 
1.6893 -0.61678 0.67123 
1.4147 -0.20303 0.62973 
1.4594 -0.2089 0.65275 
1.4741 -0.21491 0.63661 
1.4843 -0.22263 0.63162 
1.4633 -0.21675 0.6563 
1.4768 -0.23391 0.65838 
1.489 -0.2262 0.62905 
1.455 -0.21977 0.65837 
1.4463 -0.18935 0.59643 
1.4334 -0.22017 0.65553 
1.4527 -0.20786 0.65012 
1.4344 -0.17831 0.56996 
1.4307 -0.17568 0.5641 
1.096 -0.90563 0.63801 
1.0985 -0.91017 0.63661 
1.1324 -0.91035 0.65838 
1.1009 -0.9073 0.64057 
1.0969 -0.89986 0.64228 
0.99403 -0.71448 0.68182 
1.1398 -0.9145 0.66016 
1.1468 -0.92676 0.6563 
3 1 41 3
3 5 83 134
3 33 41 3
3 33 41 39
3 153 18 61
3 20 21 39
3 117 1 3
3 117 83 3
3 0 41 32
3 0 1 41
3 0 117 32
3 0 117 1
3 67 134 23
3 2 83 3
3 13 42 95
3 13 42 43
3 13 121 138
3 13 121 43
3 88 90 64
3 31 90 134
3 57 90 64
3 141 153 61
3 84 117 83
3 76 140 128
3 73 74 29
3 97 41 39
3 97 21 39
3 10 121 32
3 34 2 83
3 34 5 83
3 34 67 5
3 34 33 3
3 34 2 3
3 4 5 134
3 4 67 134
3 4 67 5
3 48 140 138
3 14 48 138
3 14 48 106
3 14 13 95
3 105 106 50
3 6 134 23
3 6 27 23
3 6 27 134
3 24 21 29
3 7 153 29
3 7 17 153
3 7 24 29
3 7 24 17
3 30 74 29
3 28 31 134
3 28 25 18
3 28 27 23
3 28 25 23
3 63 18 61
3 63 28 18
3 63 28 31
3 55 50 64
3 55 82 50
3 125 30 29
3 150 141 61
3 47 128 64
3 47 76 128
3 47 50 64
3 40 20 39
3 40 38 20
3 37 67 23
3 37 38 23
3 8 21 29
3 8 73 29
3 8 73 21
3 69 97 41
3 71 73 21
3 71 97 21
3 11 10 32
3 11 41 32
3 11 43 41
3 9 121 43
3 9 10 121
3 9 11 43
3 9 11 10
3 45 106 50
3 45 48 106
3 12 13 138
3 12 14 138
3 12 14 13
3 49 14 95
3 49 14 106
3 15 92 74
3 15 105 74
3 15 105 92
3 16 17 153
3 16 24 17
3 16 24 25
3 16 153 18
3 16 25 18
3 19 20 21
3 19 24 21
3 19 38 20
3 19 24 38
3 22 38 23
3 22 24 38
3 22 25 23
3 22 24 25
3 26 27 134
3 26 28 134
3 26 28 27
3 146 82 50
3 146 80 50
3 51 80 50
3 152 153 29
3 152 125 29
3 124 30 74
3 124 125 30
3 124 105 52
3 124 105 74
3 59 82 148
3 62 63 31
3 62 31 90
3 86 87 140
3 119 117 32
3 119 121 32
3 46 47 50
3 35 66 39
3 35 33 39
3 35 34 33
3 68 34 67
3 68 35 34
3 68 35 66
3 36 37 38
3 36 66 39
3 36 37 67
3 36 66 67
3 36 40 39
3 36 40 38
3 44 43 41
3 44 69 41
3 94 42 43
3 94 44 43
3 94 44 69
3 94 42 95
3 100 92 74
3 100 71 73
3 77 45 50
3 77 46 50
3 77 47 76
3 77 46 47
3 77 48 140
3 77 45 48
3 78 49 106
3 78 49 95
3 53 105 50
3 53 51 50
3 81 51 80
3 81 124 52
3 81 53 51
3 81 105 52
3 81 53 105
3 149 152 125
3 56 57 90
3 56 59 90
3 54 55 82
3 54 59 82
3 54 56 59
3 54 55 64
3 54 57 64
3 54 56 57
3 58 150 148
3 58 62 150
3 58 59 148
3 58 59 90
3 58 62 90
3 60 150 61
3 60 62 150
3 60 63 61
3 60 62 63
3 85 140 128
3 85 86 140
3 116 84 117
3 139 87 140
3 130 128 64
3 130 88 64
3 89 88 90
3 122 161 155
3 65 66 67
3 65 68 67
3 65 68 66
3 70 69 97
3 70 94 69
3 96 70 97
3 96 70 94
3 99 71 97
3 99 100 71
3 72 73 74
3 72 100 74
3 72 100 73
3 75 76 140
3 75 77 140
3 75 77 76
3 107 78 106
3 107 78 95
3 107 105 92
3 107 91 92
3 79 146 80
3 79 147 146
3 79 81 80
3 79 81 124
3 79 147 124
3 145 146 82
3 145 82 148
3 111 116 155
3 111 109 134
3 111 83 134
3 111 84 83
3 111 116 84
3 118 116 155
3 127 85 128
3 127 85 86
3 127 86 87
3 127 160 87
3 123 160 87
3 123 139 87
3 123 160 161
3 123 122 161
3 133 130 88
3 133 89 88
3 133 90 134
3 133 89 90
3 120 119 121
3 120 122 119
3 101 107 95
3 101 107 91
3 101 100 92
3 101 91 92
3 93 94 95
3 93 96 94
3 93 101 95
3 93 101 96
3 103 96 97
3 103 99 97
3 103 101 102
3 103 101 96
3 98 99 100
3 98 101 102
3 98 101 100
3 98 103 102
3 98 103 99
3 104 105 106
3 104 107 106
3 104 107 105
3 144 147 124
3 159 154 108
3 159 130 128
3 159 131 108
3 113 131 108
3 113 154 108
3 113 111 112
3 113 111 109
3 113 109 134
3 113 131 134
3 110 111 155
3 110 111 112
3 110 113 112
3 110 154 155
3 110 113 154
3 114 122 155
3 114 118 155
3 114 118 122
3 115 116 117
3 115 118 116
3 115 119 117
3 115 122 119
3 115 118 122
3 137 120 121
3 137 121 138
3 137 120 122
3 137 123 139
3 137 123 122
3 143 144 124
3 143 124 125
3 143 149 125
3 158 159 154
3 126 159 160
3 126 127 160
3 126 159 128
3 126 127 128
3 129 133 130
3 129 159 130
3 129 159 133
3 135 131 134
3 135 159 131
3 132 133 134
3 132 159 133
3 132 135 134
3 132 135 159
3 136 137 138
3 136 137 139
3 136 140 138
3 136 139 140
3 151 141 153
3 151 150 141
3 142 143 144
3 142 145 146
3 142 147 146
3 142 144 147
3 142 145 148
3 142 143 149
3 142 150 148
3 142 151 150
3 142 149 152
3 142 152 153
3 142 151 153
3 157 158 154
3 157 154 155
3 157 161 155
3 156 157 158
3 156 159 160
3 156 158 159
3 156 160 161
3 156 157 161
