ply
format ascii 1.0
comment PCL generated
element vertex 58
property float x
property float y
property float z
element face 112
property list uchar int vertex_indices
end_header
-0.49152 0.49994 0.64258 
-0.24179 0.49994 0.97869 
0.48321 0.49994 0.97869 
0.43721 0.49994 0.97869 
0.50321 0.49994 0.97869 
-0.49121 -0.50006 0.24783 
0.50319 0.49447 1 
-0.49174 -0.50006 0.92176 
-0.49179 -0.50006 0.97909 
0.50321 -0.50006 0.97908 
-0.49111 0.49994 0.1211 
-0.49179 0.49994 0.97869 
-0.45981 -0.49453 1 
0.34421 -0.50006 0.97909 
0.48321 -0.50006 0.97908 
0.50319 -0.49453 1 
0.51599 0.41574 4.055e-06 
0.51599 -0.06233 3.576e-06 
-0.49101 0.41574 4.055e-06 
-0.49101 -0.06233 3.576e-06 
-0.49101 -0.50558 4.2892e-06 
0.51599 -0.51665 4.5276e-06 
0.51599 -0.50558 4.2892e-06 
-0.49101 -0.51665 4.5276e-06 
0.51599 -0.48742 4.0509e-06 
-0.49101 -0.48742 4.0509e-06 
0.50319 0.49381 1 
0.39519 0.47647 1 
-0.49181 0.47647 1 
-0.45981 0.49381 1 
-0.45181 0.49447 1 
0.48319 0.49447 1 
0.50319 -0.39453 1 
-0.45181 -0.39453 1 
0.51599 0.47249 4.2937e-06 
-0.49101 0.47249 4.2937e-06 
-0.36979 -0.50006 0.97909 
-0.45179 -0.50006 0.97909 
0.51599 0.5019 4.5323e-06 
-0.49101 0.5019 4.5323e-06 
0.51599 0.50551 4.7707e-06 
-0.49101 0.50551 4.7707e-06 
0.51599 0.45134 5.4857e-06 
0.51599 -0.35407 5.482e-06 
-0.49181 -0.44031 1 
-0.49181 0.49381 1 
-0.49181 -0.49453 1 
-0.49181 -0.47653 1 
-0.49181 -0.41291 1 
-0.49181 0.49447 1 
-0.49181 0.26259 1 
-0.49181 0.13942 1 
-0.49181 -0.27454 1 
-0.49181 -0.34811 1 
0.48319 -0.45846 1 
-0.10681 -0.45846 1 
0.16019 -0.49388 1 
-0.45981 -0.49388 1 
3 3 40 41
3 8 37 23
3 15 43 21
3 18 10 19
3 30 11 49
3 4 40 6
3 25 10 19
3 25 10 5
3 7 5 23
3 7 8 23
3 9 15 21
3 35 18 10
3 45 29 28
3 45 30 49
3 45 30 29
3 0 10 41
3 0 11 41
3 0 10 5
3 0 7 5
3 0 7 11
3 50 11 49
3 47 7 11
3 31 30 3
3 31 4 6
3 31 4 3
3 1 30 3
3 1 30 11
3 1 3 41
3 1 11 41
3 2 3 40
3 2 4 40
3 2 4 3
3 20 5 23
3 20 25 5
3 26 42 40
3 26 40 6
3 26 31 6
3 46 7 8
3 46 47 7
3 46 8 37
3 32 26 27
3 32 15 43
3 32 42 43
3 32 26 42
3 14 9 15
3 14 9 21
3 39 10 41
3 39 35 10
3 51 11 52
3 51 50 11
3 48 11 52
3 48 47 11
3 53 33 28
3 53 57 33
3 36 15 37
3 36 14 21
3 12 57 15
3 12 57 46
3 12 15 37
3 12 46 37
3 55 57 33
3 44 57 46
3 44 53 57
3 13 14 15
3 13 36 15
3 13 36 14
3 54 32 15
3 56 57 15
3 56 54 15
3 16 18 19
3 16 17 19
3 20 21 22
3 20 21 23
3 24 20 22
3 24 20 25
3 24 17 19
3 24 25 19
3 26 27 28
3 26 29 28
3 26 30 29
3 26 31 30
3 32 27 28
3 32 33 28
3 34 16 18
3 34 35 18
3 36 21 23
3 36 37 23
3 38 40 41
3 38 39 41
3 38 42 43
3 38 21 22
3 38 43 21
3 38 16 17
3 38 42 40
3 38 24 17
3 38 24 22
3 38 34 16
3 38 39 35
3 38 34 35
3 44 45 28
3 44 46 47
3 44 48 47
3 44 45 49
3 44 50 49
3 44 51 50
3 44 51 52
3 44 48 52
3 44 53 28
3 54 32 33
3 54 55 33
3 56 54 55
3 56 55 57
